<?xml version="1.0" standalone="no"?>
<svg id="main_canvas" version="1.1" xmlns="http://www.w3.org/2000/svg" style="width: 800px; height: 200px;"><text x="31.09375" y="180" font-size="20" font-family="sans-serif">můžete</text><line x1="31.09375" x2="96.6875" y1="160" y2="160" style="stroke:black; width:8"/><text x="106.6875" y="180" font-size="20" font-family="sans-serif">nastavit</text><line x1="106.6875" x2="176.0625" y1="160" y2="160" style="stroke:black; width:8"/><text x="186.0625" y="180" font-size="20" font-family="sans-serif">klíčové</text><line x1="186.0625" x2="248.3125" y1="160" y2="160" style="stroke:black; width:8"/><text x="258.3125" y="180" font-size="20" font-family="sans-serif">snímky</text><line x1="258.3125" x2="321.65625" y1="160" y2="160" style="stroke:black; width:8"/><text x="331.65625" y="180" font-size="20" font-family="sans-serif">pro</text><line x1="331.65625" x2="360.5625" y1="160" y2="160" style="stroke:black; width:8"/><text x="370.5625" y="180" font-size="20" font-family="sans-serif">více</text><line x1="370.5625" x2="407.25" y1="160" y2="160" style="stroke:black; width:8"/><text x="417.25" y="180" font-size="20" font-family="sans-serif">než</text><line x1="417.25" x2="449.5" y1="160" y2="160" style="stroke:black; width:8"/><text x="459.5" y="180" font-size="20" font-family="sans-serif">jednu</text><line x1="459.5" x2="509.4375" y1="160" y2="160" style="stroke:black; width:8"/><text x="519.4375" y="180" font-size="20" font-family="sans-serif">vlastnost</text><line x1="519.4375" x2="598.8125" y1="160" y2="160" style="stroke:black; width:8"/><text x="608.8125" y="180" font-size="20" font-family="sans-serif">vrstvy</text><line x1="608.8125" x2="661.03125" y1="160" y2="160" style="stroke:black; width:8"/><text x="671.03125" y="180" font-size="20" font-family="sans-serif">najednou</text><line x1="671.03125" x2="753.34375" y1="160" y2="160" style="stroke:black; width:8"/><text x="763.34375" y="180" font-size="20" font-family="sans-serif">.</text><line x1="763.34375" x2="768.90625" y1="160" y2="160" style="stroke:black; width:8"/><text x="77.9296875" y="20" font-size="20" font-family="sans-serif">you</text><line x1="77.9296875" x2="110.1953125" y1="26" y2="26" style="stroke:black; width:8"/><line x1="94.0625" x2="63.890625" y1="26" y2="160" style="stroke:black; width:8"/><text x="120.1953125" y="20" font-size="20" font-family="sans-serif">can</text><line x1="120.1953125" x2="152.4609375" y1="26" y2="26" style="stroke:black; width:8"/><line x1="136.328125" x2="63.890625" y1="26" y2="160" style="stroke:black; width:8"/><text x="162.4609375" y="20" font-size="20" font-family="sans-serif">set</text><line x1="162.4609375" x2="189.6015625" y1="26" y2="26" style="stroke:black; width:8"/><line x1="176.03125" x2="141.375" y1="26" y2="160" style="stroke:black; width:8"/><text x="199.6015625" y="20" font-size="20" font-family="sans-serif">keyframes</text><line x1="199.6015625" x2="291.8671875" y1="26" y2="26" style="stroke:black; width:8"/><line x1="245.734375" x2="217.1875" y1="26" y2="160" style="stroke:black; width:8"/><line x1="245.734375" x2="289.984375" y1="26" y2="160" style="stroke:black; width:8"/><text x="301.8671875" y="20" font-size="20" font-family="sans-serif">for</text><line x1="301.8671875" x2="325.5546875" y1="26" y2="26" style="stroke:black; width:8"/><line x1="313.7109375" x2="346.109375" y1="26" y2="160" style="stroke:black; width:8"/><text x="335.5546875" y="20" font-size="20" font-family="sans-serif">more</text><line x1="335.5546875" x2="381.1328125" y1="26" y2="26" style="stroke:black; width:8"/><line x1="358.34375" x2="388.90625" y1="26" y2="160" style="stroke:black; width:8"/><text x="391.1328125" y="20" font-size="20" font-family="sans-serif">than</text><line x1="391.1328125" x2="430.0703125" y1="26" y2="26" style="stroke:black; width:8"/><line x1="410.6015625" x2="433.375" y1="26" y2="160" style="stroke:black; width:8"/><text x="440.0703125" y="20" font-size="20" font-family="sans-serif">one</text><line x1="440.0703125" x2="473.4609375" y1="26" y2="26" style="stroke:black; width:8"/><line x1="456.765625" x2="484.46875" y1="26" y2="160" style="stroke:black; width:8"/><text x="483.4609375" y="20" font-size="20" font-family="sans-serif">layer</text><line x1="483.4609375" x2="527.1640625" y1="26" y2="26" style="stroke:black; width:8"/><line x1="505.3125" x2="634.921875" y1="26" y2="160" style="stroke:black; width:8"/><text x="537.1640625" y="20" font-size="20" font-family="sans-serif">property</text><line x1="537.1640625" x2="610.5546875" y1="26" y2="26" style="stroke:black; width:8"/><line x1="573.859375" x2="559.125" y1="26" y2="160" style="stroke:black; width:8"/><text x="620.5546875" y="20" font-size="20" font-family="sans-serif">at</text><line x1="620.5546875" x2="637.6953125" y1="26" y2="26" style="stroke:black; width:8"/><text x="647.6953125" y="20" font-size="20" font-family="sans-serif">a</text><line x1="647.6953125" x2="658.8359375" y1="26" y2="26" style="stroke:black; width:8"/><text x="668.8359375" y="20" font-size="20" font-family="sans-serif">time</text><line x1="668.8359375" x2="706.6328125" y1="26" y2="26" style="stroke:black; width:8"/><line x1="687.734375" x2="712.1875" y1="26" y2="160" style="stroke:black; width:8"/><text x="716.6328125" y="20" font-size="20" font-family="sans-serif">.</text><line x1="716.6328125" x2="722.2109375" y1="26" y2="26" style="stroke:black; width:8"/><line x1="719.421875" x2="766.125" y1="26" y2="160" style="stroke:black; width:8"/></svg>