<?xml version="1.0" standalone="no"?>
<svg id="main_canvas" version="1.1" xmlns="http://www.w3.org/2000/svg" style="width: 800px; height: 200px;"><text x="24.3125" y="180" font-size="20" font-family="sans-serif">Můžete</text><line x1="24.3125" x2="90.84375" y1="160" y2="160" style="stroke:black; width:8"/><text x="100.84375" y="180" font-size="20" font-family="sans-serif">nastavit</text><line x1="100.84375" x2="171.890625" y1="160" y2="160" style="stroke:black; width:8"/><text x="181.890625" y="180" font-size="20" font-family="sans-serif">klíčové</text><line x1="181.890625" x2="244.125" y1="160" y2="160" style="stroke:black; width:8"/><text x="254.125" y="180" font-size="20" font-family="sans-serif">snímky</text><line x1="254.125" x2="320.09375" y1="160" y2="160" style="stroke:black; width:8"/><text x="330.09375" y="180" font-size="20" font-family="sans-serif">pro</text><line x1="330.09375" x2="359.890625" y1="160" y2="160" style="stroke:black; width:8"/><text x="369.890625" y="180" font-size="20" font-family="sans-serif">více</text><line x1="369.890625" x2="407" y1="160" y2="160" style="stroke:black; width:8"/><text x="417" y="180" font-size="20" font-family="sans-serif">než</text><line x1="417" x2="449.640625" y1="160" y2="160" style="stroke:black; width:8"/><text x="459.640625" y="180" font-size="20" font-family="sans-serif">jednu</text><line x1="459.640625" x2="510.359375" y1="160" y2="160" style="stroke:black; width:8"/><text x="520.359375" y="180" font-size="20" font-family="sans-serif">vlastnost</text><line x1="520.359375" x2="603.390625" y1="160" y2="160" style="stroke:black; width:8"/><text x="613.390625" y="180" font-size="20" font-family="sans-serif">vrstvy</text><line x1="613.390625" x2="668.390625" y1="160" y2="160" style="stroke:black; width:8"/><text x="678.390625" y="180" font-size="20" font-family="sans-serif">najednou</text><line x1="678.390625" x2="760.421875" y1="160" y2="160" style="stroke:black; width:8"/><text x="770.421875" y="180" font-size="20" font-family="sans-serif">.</text><line x1="770.421875" x2="775.6875" y1="160" y2="160" style="stroke:black; width:8"/><text x="68.15625" y="20" font-size="20" font-family="sans-serif">You</text><line x1="68.15625" x2="102.96875" y1="26" y2="26" style="stroke:black; width:8"/><line x1="85.5625" x2="57.578125" y1="26" y2="160" style="stroke:black; width:8"/><text x="112.96875" y="20" font-size="20" font-family="sans-serif">can</text><line x1="112.96875" x2="146.359375" y1="26" y2="26" style="stroke:black; width:8"/><line x1="129.6640625" x2="57.578125" y1="26" y2="160" style="stroke:black; width:8"/><text x="156.359375" y="20" font-size="20" font-family="sans-serif">set</text><line x1="156.359375" x2="185.28125" y1="26" y2="26" style="stroke:black; width:8"/><line x1="170.8203125" x2="136.3671875" y1="26" y2="160" style="stroke:black; width:8"/><text x="195.28125" y="20" font-size="20" font-family="sans-serif">keyframes</text><line x1="195.28125" x2="288.609375" y1="26" y2="26" style="stroke:black; width:8"/><line x1="241.9453125" x2="213.0078125" y1="26" y2="160" style="stroke:black; width:8"/><line x1="241.9453125" x2="287.109375" y1="26" y2="160" style="stroke:black; width:8"/><text x="298.609375" y="20" font-size="20" font-family="sans-serif">for</text><line x1="298.609375" x2="325.96875" y1="26" y2="26" style="stroke:black; width:8"/><line x1="312.2890625" x2="344.9921875" y1="26" y2="160" style="stroke:black; width:8"/><text x="335.96875" y="20" font-size="20" font-family="sans-serif">more</text><line x1="335.96875" x2="382.5" y1="26" y2="26" style="stroke:black; width:8"/><line x1="359.234375" x2="388.4453125" y1="26" y2="160" style="stroke:black; width:8"/><text x="392.5" y="20" font-size="20" font-family="sans-serif">than</text><line x1="392.5" x2="432.96875" y1="26" y2="26" style="stroke:black; width:8"/><line x1="412.734375" x2="433.3203125" y1="26" y2="160" style="stroke:black; width:8"/><text x="442.96875" y="20" font-size="20" font-family="sans-serif">one</text><line x1="442.96875" x2="477.421875" y1="26" y2="26" style="stroke:black; width:8"/><line x1="460.1953125" x2="485" y1="26" y2="160" style="stroke:black; width:8"/><text x="487.421875" y="20" font-size="20" font-family="sans-serif">layer</text><line x1="487.421875" x2="530.953125" y1="26" y2="26" style="stroke:black; width:8"/><line x1="509.1875" x2="640.890625" y1="26" y2="160" style="stroke:black; width:8"/><text x="540.953125" y="20" font-size="20" font-family="sans-serif">property</text><line x1="540.953125" x2="616.765625" y1="26" y2="26" style="stroke:black; width:8"/><line x1="578.859375" x2="561.875" y1="26" y2="160" style="stroke:black; width:8"/><text x="626.765625" y="20" font-size="20" font-family="sans-serif">at</text><line x1="626.765625" x2="644.65625" y1="26" y2="26" style="stroke:black; width:8"/><text x="654.65625" y="20" font-size="20" font-family="sans-serif">a</text><line x1="654.65625" x2="665.65625" y1="26" y2="26" style="stroke:black; width:8"/><text x="675.65625" y="20" font-size="20" font-family="sans-serif">time</text><line x1="675.65625" x2="716.578125" y1="26" y2="26" style="stroke:black; width:8"/><line x1="696.1171875" x2="719.40625" y1="26" y2="160" style="stroke:black; width:8"/><text x="726.578125" y="20" font-size="20" font-family="sans-serif">.</text><line x1="726.578125" x2="731.84375" y1="26" y2="26" style="stroke:black; width:8"/><line x1="729.2109375" x2="773.0546875" y1="26" y2="160" style="stroke:black; width:8"/></svg>