<?xml version="1.0" standalone="no"?>
<svg id="main_canvas" version="1.1" xmlns="http://www.w3.org/2000/svg" style="width: 800px; height: 200px;"><text x="260.4609375" y="180" font-size="20" font-family="sans-serif">Es</text><line x1="260.4609375" x2="282.8359375" y1="160" y2="160" style="stroke:black; width:8"/><text x="292.8359375" y="180" font-size="20" font-family="sans-serif">schüttet</text><line x1="292.8359375" x2="367.3359375" y1="160" y2="160" style="stroke:black; width:8"/><text x="377.3359375" y="180" font-size="20" font-family="sans-serif">wie</text><line x1="377.3359375" x2="409.2265625" y1="160" y2="160" style="stroke:black; width:8"/><text x="419.2265625" y="180" font-size="20" font-family="sans-serif">aus</text><line x1="419.2265625" x2="452.1484375" y1="160" y2="160" style="stroke:black; width:8"/><text x="462.1484375" y="180" font-size="20" font-family="sans-serif">Eimern</text><line x1="462.1484375" x2="524.3046875" y1="160" y2="160" style="stroke:black; width:8"/><text x="534.3046875" y="180" font-size="20" font-family="sans-serif">.</text><line x1="534.3046875" x2="539.5859375" y1="160" y2="160" style="stroke:black; width:8"/><text x="269.890625" y="20" font-size="20" font-family="sans-serif">It's</text><line x1="269.890625" x2="295.578125" y1="26" y2="26" style="stroke:black; width:8"/><line x1="282.734375" x2="271.6484375" y1="26" y2="160" style="stroke:black; width:8"/><text x="305.578125" y="20" font-size="20" font-family="sans-serif">raining</text><line x1="305.578125" x2="365.84375" y1="26" y2="26" style="stroke:black; width:8"/><line x1="335.7109375" x2="330.0859375" y1="26" y2="160" style="stroke:black; width:8"/><text x="375.84375" y="20" font-size="20" font-family="sans-serif">cats</text><line x1="375.84375" x2="415.734375" y1="26" y2="26" style="stroke:black; width:8"/><text x="425.734375" y="20" font-size="20" font-family="sans-serif">and</text><line x1="425.734375" x2="458.9375" y1="26" y2="26" style="stroke:black; width:8"/><text x="468.9375" y="20" font-size="20" font-family="sans-serif">dogs</text><line x1="468.9375" x2="514.84375" y1="26" y2="26" style="stroke:black; width:8"/><text x="524.84375" y="20" font-size="20" font-family="sans-serif">.</text><line x1="524.84375" x2="530.109375" y1="26" y2="26" style="stroke:black; width:8"/><line x1="527.4765625" x2="536.9453125" y1="26" y2="160" style="stroke:black; width:8"/></svg>